<?xml version="1.0" encoding="UTF-8" ?>
<!DOCTYPE svg PUBLIC "-//W3C//DTD SVG 1.1//EN"
  "http://www.w3.org/Graphics/SVG/1.1/DTD/svg11.dtd">
<svg
  xmlns="http://www.w3.org/2000/svg"
  version="1.1"
  width="275px"
  height="275px"
  style="shape-rendering:geometricPrecision; text-rendering:geometricPrecision; image-rendering:optimizeQuality; fill-rule:evenodd; clip-rule:evenodd"
  xmlns:xlink="http://www.w3.org/1999/xlink"
>
<g><path
      style="opacity:0.996"
      fill="#fdfefd"
      d="M 123.5,-0.5 C 132.833,-0.5 142.167,-0.5 151.5,-0.5C 220.6,11.2669 261.6,51.6003 274.5,120.5C 274.5,131.5 274.5,142.5 274.5,153.5C 261.6,222.4 220.6,262.733 151.5,274.5C 142.167,274.5 132.833,274.5 123.5,274.5C 70.1019,266.933 32.2686,238.6 10,189.5C 4.26439,175.23 0.764388,160.564 -0.5,145.5C -0.5,139.833 -0.5,134.167 -0.5,128.5C 6.05141,69.777 36.7181,29.277 91.5,7C 102.107,3.64978 112.774,1.14978 123.5,-0.5 Z"
    /></g>
<g><path
      style="opacity:1"
      fill="#edfcfa"
      d="M 223.5,78.5 C 224.5,77.1667 225.5,75.8333 226.5,74.5C 228.889,63.5553 224.555,59.222 213.5,61.5C 207.267,66.3865 206.934,71.8865 212.5,78C 215.767,79.8195 219.1,79.9862 222.5,78.5C 222.244,80.7761 220.91,81.9428 218.5,82C 221.014,82.8809 223.014,84.3809 224.5,86.5C 223.391,86.4431 222.391,86.1098 221.5,85.5C 217.498,83.3902 213.165,82.0569 208.5,81.5C 203,65.3337 192,55.0004 175.5,50.5C 168.275,48.2702 160.941,47.9368 153.5,49.5C 156.428,48.1803 159.761,47.5136 163.5,47.5C 172.707,46.6722 181.04,48.6722 188.5,53.5C 191.763,52.6305 192.096,51.2972 189.5,49.5C 191.886,48.4705 193.886,49.1372 195.5,51.5C 196.833,60.8333 198.167,60.8333 199.5,51.5C 201.632,50.4016 203.798,49.4016 206,48.5C 206.284,50.8856 207.284,51.5523 209,50.5C 207.983,45.3616 207.483,40.0282 207.5,34.5C 211.908,34.884 216.075,34.2174 220,32.5C 222.687,34.2615 225.52,35.5948 228.5,36.5C 228.865,43.41 227.365,44.41 224,39.5C 223.798,41.2556 223.298,42.9223 222.5,44.5C 221.808,43.9747 221.308,43.3081 221,42.5C 220.667,43.8333 220.333,45.1667 220,46.5C 219.667,46.1667 219.333,45.8333 219,45.5C 217.416,46.8613 215.582,47.528 213.5,47.5C 213.489,51.3518 215.489,53.1851 219.5,53C 218.044,54.7448 216.711,56.5781 215.5,58.5C 216.723,59.6139 218.056,59.7805 219.5,59C 218.663,57.9887 218.33,56.8221 218.5,55.5C 221.833,54.1667 225.167,54.1667 228.5,55.5C 228.5,54.5 228.5,53.5 228.5,52.5C 229.675,52.281 230.675,52.6143 231.5,53.5C 230.167,56.8333 230.167,60.1667 231.5,63.5C 227.379,66.4659 227.713,68.2992 232.5,69C 233.517,70.0495 233.684,71.2161 233,72.5C 231.644,71.6198 230.144,71.2865 228.5,71.5C 228.77,74.3126 229.27,76.9792 230,79.5C 229.586,79.9574 229.086,80.2907 228.5,80.5C 227.833,79.5 227.167,78.5 226.5,77.5C 225.583,78.1272 224.583,78.4606 223.5,78.5 Z"
    /></g>
<g><path
      style="opacity:1"
      fill="#2ee2f1"
      d="M 211.5,36.5 C 219.524,35.2649 221.524,38.0982 217.5,45C 209.711,46.0572 207.711,43.2238 211.5,36.5 Z"
    /></g>
<g><path
      style="opacity:1"
      fill="#4ddcec"
      d="M 201.5,51.5 C 206.328,51.3852 207.661,53.5519 205.5,58C 200.81,58.1412 199.477,55.9746 201.5,51.5 Z"
    /></g>
<g><path
      style="opacity:1"
      fill="#e1fdfc"
      d="M 183.5,59.5 C 183.833,60.1667 184.167,60.8333 184.5,61.5C 174.525,57.7141 164.192,56.5475 153.5,58C 150.363,59.4727 147.863,61.6393 146,64.5C 143.83,63.2799 141.663,63.2799 139.5,64.5C 148.698,56.6983 159.365,53.8649 171.5,56C 175.606,56.8914 179.606,58.0581 183.5,59.5 Z"
    /></g>
<g><path
      style="opacity:1"
      fill="#31ceef"
      d="M 175.5,50.5 C 176.287,52.1042 177.62,52.7709 179.5,52.5C 179.33,53.8221 179.663,54.9887 180.5,56C 183.19,56.7709 185.856,57.6042 188.5,58.5C 186.955,59.4519 185.288,59.7852 183.5,59.5C 179.606,58.0581 175.606,56.8914 171.5,56C 159.365,53.8649 148.698,56.6983 139.5,64.5C 137.246,65.4151 135.246,66.7484 133.5,68.5C 133.383,66.5165 134.05,64.8498 135.5,63.5C 138.295,62.2003 140.961,60.7003 143.5,59C 145.037,57.8904 145.703,56.3904 145.5,54.5C 144.5,54.5 143.5,54.5 142.5,54.5C 146.058,52.5537 149.725,50.8871 153.5,49.5C 160.941,47.9368 168.275,48.2702 175.5,50.5 Z"
    /></g>
<g><path
      style="opacity:1"
      fill="#1bedf0"
      d="M 226.5,74.5 C 223.813,74.6641 221.146,74.4974 218.5,74C 217.874,73.2496 217.374,72.4162 217,71.5C 215.599,73.1922 213.766,73.8588 211.5,73.5C 211.5,72.5 211.5,71.5 211.5,70.5C 214.898,70.8204 218.232,70.487 221.5,69.5C 220.376,68.086 219.376,66.586 218.5,65C 219.167,64.6667 219.833,64.3333 220.5,64C 218.167,62.957 215.834,62.1237 213.5,61.5C 224.555,59.222 228.889,63.5553 226.5,74.5 Z"
    /></g>
<g><path
      style="opacity:1"
      fill="#2ce6f4"
      d="M 213.5,61.5 C 215.834,62.1237 218.167,62.957 220.5,64C 219.833,64.3333 219.167,64.6667 218.5,65C 219.376,66.586 220.376,68.086 221.5,69.5C 218.232,70.487 214.898,70.8204 211.5,70.5C 211.5,71.5 211.5,72.5 211.5,73.5C 213.766,73.8588 215.599,73.1922 217,71.5C 217.374,72.4162 217.874,73.2496 218.5,74C 221.146,74.4974 223.813,74.6641 226.5,74.5C 225.5,75.8333 224.5,77.1667 223.5,78.5C 223.167,78.5 222.833,78.5 222.5,78.5C 219.1,79.9862 215.767,79.8195 212.5,78C 206.934,71.8865 207.267,66.3865 213.5,61.5 Z"
    /></g>
<g><path
      style="opacity:1"
      fill="#2dbdef"
      d="M 142.5,54.5 C 143.5,54.5 144.5,54.5 145.5,54.5C 145.703,56.3904 145.037,57.8904 143.5,59C 140.961,60.7003 138.295,62.2003 135.5,63.5C 134.05,64.8498 133.383,66.5165 133.5,68.5C 130.556,73.1478 127.89,77.9811 125.5,83C 122.763,84.0798 121.096,83.2464 120.5,80.5C 123.899,68.4396 131.232,59.773 142.5,54.5 Z"
    /></g>
<g><path
      style="opacity:1"
      fill="#36e3f0"
      d="M 175.5,50.5 C 192,55.0004 203,65.3337 208.5,81.5C 213.165,82.0569 217.498,83.3902 221.5,85.5C 220.226,86.1894 220.226,87.0228 221.5,88C 223.725,88.5611 225.725,89.5611 227.5,91C 226.251,92.8241 225.085,92.6574 224,90.5C 223.583,91.756 222.75,92.4226 221.5,92.5C 215.985,89.2866 209.985,87.6199 203.5,87.5C 201.003,76.0071 194.67,67.3404 184.5,61.5C 184.167,60.8333 183.833,60.1667 183.5,59.5C 185.288,59.7852 186.955,59.4519 188.5,58.5C 185.856,57.6042 183.19,56.7709 180.5,56C 179.663,54.9887 179.33,53.8221 179.5,52.5C 177.62,52.7709 176.287,52.1042 175.5,50.5 Z"
    /></g>
<g><path
      style="opacity:1"
      fill="#5bb1de"
      d="M 75.5,87.5 C 70.7119,88.123 68.8786,90.7897 70,95.5C 70.956,96.8941 72.2894,97.5607 74,97.5C 75.825,97.0566 77.6583,96.7233 79.5,96.5C 75.8794,100.485 72.2127,100.485 68.5,96.5C 66.67,92.5084 67.67,89.3418 71.5,87C 73.0657,86.235 74.3991,86.4017 75.5,87.5 Z"
    /></g>
<g><path
      style="opacity:1"
      fill="#1ba4f1"
      d="M 75.5,87.5 C 77.3797,87.2291 78.713,87.8958 79.5,89.5C 81.9802,92.7987 85.3135,94.6321 89.5,95C 85.9748,95.1787 82.6414,95.6787 79.5,96.5C 77.6583,96.7233 75.825,97.0566 74,97.5C 72.2894,97.5607 70.956,96.8941 70,95.5C 68.8786,90.7897 70.7119,88.123 75.5,87.5 Z"
    /></g>
<g><path
      style="opacity:1"
      fill="#44b4ed"
      d="M 79.5,89.5 C 86.8333,89.5 94.1667,89.5 101.5,89.5C 104.061,91.6774 104.061,93.8441 101.5,96C 94.1742,96.4997 86.8409,96.6663 79.5,96.5C 82.6414,95.6787 85.9748,95.1787 89.5,95C 85.3135,94.6321 81.9802,92.7987 79.5,89.5 Z"
    /></g>
<g><path
      style="opacity:1"
      fill="#e3fafa"
      d="M 170.5,89.5 C 171.496,89.4142 172.329,89.7476 173,90.5C 173.808,92.5787 173.641,94.5787 172.5,96.5C 168.555,97.2685 164.555,97.7685 160.5,98C 161.337,99.0113 161.67,100.178 161.5,101.5C 158.813,101.336 156.146,101.503 153.5,102C 152.167,103.667 152.167,105.333 153.5,107C 155.81,107.497 158.143,107.663 160.5,107.5C 159.666,108.748 158.333,109.415 156.5,109.5C 153.508,109.034 150.508,108.701 147.5,108.5C 147.5,108.167 147.5,107.833 147.5,107.5C 149.647,106.068 149.98,104.235 148.5,102C 136.838,101.5 125.171,101.333 113.5,101.5C 89.5,101.5 65.5,101.5 41.5,101.5C 41.5,100.833 41.5,100.167 41.5,99.5C 50.8956,99.229 60.2289,99.0623 69.5,99C 68.7476,98.3292 68.4142,97.4959 68.5,96.5C 72.2127,100.485 75.8794,100.485 79.5,96.5C 86.8409,96.6663 94.1742,96.4997 101.5,96C 104.061,93.8441 104.061,91.6774 101.5,89.5C 104.084,90.0483 105.084,91.715 104.5,94.5C 106.167,94.5 107.833,94.5 109.5,94.5C 109.232,92.901 109.566,91.5676 110.5,90.5C 110.232,92.099 110.566,93.4324 111.5,94.5C 111.5,95.1667 111.833,95.5 112.5,95.5C 123.993,96.6595 135.659,96.8261 147.5,96C 149.155,94.5557 149.822,92.7224 149.5,90.5C 150.423,91.3029 151.423,91.4696 152.5,91C 152.848,88.275 152.182,85.6083 150.5,83C 153.49,82.1531 154.824,83.3198 154.5,86.5C 160.097,86.7703 165.43,87.7703 170.5,89.5 Z"
    /></g>
<g><path
      style="opacity:1"
      fill="#64d3e7"
      d="M 147.5,90.5 C 148.167,90.5 148.833,90.5 149.5,90.5C 149.822,92.7224 149.155,94.5557 147.5,96C 135.659,96.8261 123.993,96.6595 112.5,95.5C 124.19,95.6946 135.856,95.3612 147.5,94.5C 147.5,93.1667 147.5,91.8333 147.5,90.5 Z"
    /></g>
<g><path
      style="opacity:1"
      fill="#1abff0"
      d="M 147.5,90.5 C 147.5,91.8333 147.5,93.1667 147.5,94.5C 135.856,95.3612 124.19,95.6946 112.5,95.5C 111.833,95.5 111.5,95.1667 111.5,94.5C 111.511,92.9826 112.177,91.8159 113.5,91C 124.828,90.5001 136.162,90.3335 147.5,90.5 Z"
    /></g>
<g><path
      style="opacity:1"
      fill="#42d0eb"
      d="M 170.5,89.5 C 173.061,91.6774 173.061,93.8441 170.5,96C 165.5,96.6667 160.5,96.6667 155.5,96C 152.833,94 152.833,92 155.5,90C 160.489,89.5007 165.489,89.3341 170.5,89.5 Z"
    /></g>
<g><path
      style="opacity:1"
      fill="#7cd3ec"
      d="M 147.5,90.5 C 136.162,90.3335 124.828,90.5001 113.5,91C 112.177,91.8159 111.511,92.9826 111.5,94.5C 110.566,93.4324 110.232,92.099 110.5,90.5C 122.931,89.1797 135.265,89.1797 147.5,90.5 Z"
    /></g>
<g><path
      style="opacity:1"
      fill="#2597ef"
      d="M 41.5,99.5 C 41.5,100.167 41.5,100.833 41.5,101.5C 52.988,102.495 64.6547,102.828 76.5,102.5C 78.631,103.314 80.9644,103.814 83.5,104C 76.3414,104.762 69.3414,105.596 62.5,106.5C 55.6457,106.176 48.979,106.509 42.5,107.5C 41.1667,108.167 40.1667,109.167 39.5,110.5C 35.8875,111.076 32.8875,110.076 30.5,107.5C 30.2037,99.4681 33.8704,96.8014 41.5,99.5 Z"
    /></g>
<g><path
      style="opacity:1"
      fill="#17a9f2"
      d="M 76.5,102.5 C 88.8756,102.157 101.209,102.657 113.5,104C 105.356,104.894 97.3556,105.727 89.5,106.5C 80.5,106.5 71.5,106.5 62.5,106.5C 69.3414,105.596 76.3414,104.762 83.5,104C 80.9644,103.814 78.631,103.314 76.5,102.5 Z"
    /></g>
<g><path
      style="opacity:1"
      fill="#24b0e9"
      d="M 41.5,101.5 C 65.5,101.5 89.5,101.5 113.5,101.5C 121.984,102.493 130.651,102.826 139.5,102.5C 139.5,103.5 139.5,104.5 139.5,105.5C 122.831,105.735 106.164,106.068 89.5,106.5C 97.3556,105.727 105.356,104.894 113.5,104C 101.209,102.657 88.8756,102.157 76.5,102.5C 64.6547,102.828 52.988,102.495 41.5,101.5 Z"
    /></g>
<g><path
      style="opacity:1"
      fill="#39c8e9"
      d="M 161.5,101.5 C 163.062,103.901 162.729,105.901 160.5,107.5C 158.143,107.663 155.81,107.497 153.5,107C 152.167,105.333 152.167,103.667 153.5,102C 156.146,101.503 158.813,101.336 161.5,101.5 Z"
    /></g>
<g><path
      style="opacity:1"
      fill="#3cbae1"
      d="M 113.5,101.5 C 125.171,101.333 136.838,101.5 148.5,102C 149.98,104.235 149.647,106.068 147.5,107.5C 112.5,107.5 77.5,107.5 42.5,107.5C 48.979,106.509 55.6457,106.176 62.5,106.5C 71.5,106.5 80.5,106.5 89.5,106.5C 106.164,106.068 122.831,105.735 139.5,105.5C 139.5,104.5 139.5,103.5 139.5,102.5C 130.651,102.826 121.984,102.493 113.5,101.5 Z"
    /></g>
<g><path
      style="opacity:1"
      fill="#b4f6fe"
      d="M 42.5,107.5 C 77.5,107.5 112.5,107.5 147.5,107.5C 147.5,107.833 147.5,108.167 147.5,108.5C 112.498,108.333 77.4984,108.5 42.5,109C 41.7562,110.039 40.7562,110.539 39.5,110.5C 40.1667,109.167 41.1667,108.167 42.5,107.5 Z"
    /></g>
<g><path
      style="opacity:1"
      fill="#e5fbfc"
      d="M 30.5,107.5 C 32.8875,110.076 35.8875,111.076 39.5,110.5C 40.7562,110.539 41.7562,110.039 42.5,109C 77.4984,108.5 112.498,108.333 147.5,108.5C 117.331,109.167 86.9973,109.833 56.5,110.5C 97.6647,111.167 138.665,111.833 179.5,112.5C 138.167,112.5 96.8333,112.5 55.5,112.5C 52.1239,108.533 48.6239,108.533 45,112.5C 43.317,117.457 44.817,120.79 49.5,122.5C 49.5,122.833 49.5,123.167 49.5,123.5C 43.9738,123.821 38.6405,123.488 33.5,122.5C 36.3426,122.058 39.0093,121.058 41.5,119.5C 42.6517,116.894 42.8184,114.227 42,111.5C 40.43,112.358 38.7633,113.025 37,113.5C 35.1208,111.987 32.9541,111.321 30.5,111.5C 30.5,110.167 30.5,108.833 30.5,107.5 Z"
    /></g>
<g><path
      style="opacity:1"
      fill="#5aa9dd"
      d="M 55.5,112.5 C 52.1554,111.001 48.9888,111.334 46,113.5C 45.1741,119.176 47.6741,121.843 53.5,121.5C 52.4324,122.434 51.099,122.768 49.5,122.5C 44.817,120.79 43.317,117.457 45,112.5C 48.6239,108.533 52.1239,108.533 55.5,112.5 Z"
    /></g>
<g><path
      style="opacity:1"
      fill="#1ba6ef"
      d="M 57.5,114.5 C 73.5035,114.333 89.5035,114.5 105.5,115C 104.833,115.667 104.167,116.333 103.5,117C 101.292,117.191 99.2922,117.691 97.5,118.5C 83.8333,118.5 70.1667,118.5 56.5,118.5C 66.9921,117.67 77.6588,117.17 88.5,117C 78.1502,115.857 67.8169,115.024 57.5,114.5 Z"
    /></g>
<g><path
      style="opacity:1"
      fill="#1cb6eb"
      d="M 56.5,113.5 C 88.8407,113.488 121.174,113.988 153.5,115C 153.833,115.333 154.167,115.667 154.5,116C 135.689,118.339 116.689,119.173 97.5,118.5C 99.2922,117.691 101.292,117.191 103.5,117C 104.167,116.333 104.833,115.667 105.5,115C 89.5035,114.5 73.5035,114.333 57.5,114.5C 56.8333,114.5 56.5,114.167 56.5,113.5 Z"
    /></g>
<g><path
      style="opacity:1"
      fill="#179af3"
      d="M 55.5,112.5 C 55.5,113.167 55.8333,113.5 56.5,113.5C 56.5,114.167 56.8333,114.5 57.5,114.5C 67.8169,115.024 78.1502,115.857 88.5,117C 77.6588,117.17 66.9921,117.67 56.5,118.5C 55.8333,118.5 55.5,118.833 55.5,119.5C 54.8333,120.167 54.1667,120.833 53.5,121.5C 47.6741,121.843 45.1741,119.176 46,113.5C 48.9888,111.334 52.1554,111.001 55.5,112.5 Z"
    /></g>
<g><path
      style="opacity:1"
      fill="#53cce5"
      d="M 55.5,112.5 C 96.8333,112.5 138.167,112.5 179.5,112.5C 182.033,114.753 182.033,117.086 179.5,119.5C 138.167,119.5 96.8333,119.5 55.5,119.5C 55.5,118.833 55.8333,118.5 56.5,118.5C 70.1667,118.5 83.8333,118.5 97.5,118.5C 116.689,119.173 135.689,118.339 154.5,116C 154.167,115.667 153.833,115.333 153.5,115C 121.174,113.988 88.8407,113.488 56.5,113.5C 55.8333,113.5 55.5,113.167 55.5,112.5 Z"
    /></g>
<g><path
      style="opacity:1"
      fill="#47d8e6"
      d="M 186.5,112.5 C 189.518,112.335 192.518,112.502 195.5,113C 196.76,114.814 196.76,116.647 195.5,118.5C 192.562,119.575 189.562,119.741 186.5,119C 185.232,116.837 185.232,114.67 186.5,112.5 Z"
    /></g>
<g><path
      style="opacity:1"
      fill="#cefefe"
      d="M 55.5,119.5 C 96.8333,119.5 138.167,119.5 179.5,119.5C 179.158,120.338 178.492,120.672 177.5,120.5C 137.161,120.167 96.8278,120.5 56.5,121.5C 56.8627,122.183 57.1961,122.85 57.5,123.5C 54.8333,123.5 52.1667,123.5 49.5,123.5C 49.5,123.167 49.5,122.833 49.5,122.5C 51.099,122.768 52.4324,122.434 53.5,121.5C 54.1667,120.833 54.8333,120.167 55.5,119.5 Z"
    /></g>
<g><path
      style="opacity:1"
      fill="#2feef2"
      d="M 221.5,85.5 C 222.391,86.1098 223.391,86.4431 224.5,86.5C 229.49,90.4923 233.823,95.159 237.5,100.5C 243.351,114.151 242.684,127.485 235.5,140.5C 230.383,146.282 224.383,150.949 217.5,154.5C 216.167,154.5 214.833,154.5 213.5,154.5C 211.874,154.062 210.207,153.728 208.5,153.5C 206.159,154.182 203.826,154.849 201.5,155.5C 201.5,154.167 201.5,152.833 201.5,151.5C 206.748,151.693 211.415,150.359 215.5,147.5C 235.887,135.952 240.387,119.952 229,99.5C 226.14,97.4983 223.64,95.165 221.5,92.5C 222.75,92.4226 223.583,91.756 224,90.5C 225.085,92.6574 226.251,92.8241 227.5,91C 225.725,89.5611 223.725,88.5611 221.5,88C 220.226,87.0228 220.226,86.1894 221.5,85.5 Z"
    /></g>
<g><path
      style="opacity:1"
      fill="#baebf9"
      d="M 30.5,122.5 C 30.5,122.167 30.5,121.833 30.5,121.5C 31.609,121.557 32.609,121.89 33.5,122.5C 38.6405,123.488 43.9738,123.821 49.5,123.5C 52.1667,123.5 54.8333,123.5 57.5,123.5C 71.6766,123.171 85.6766,123.504 99.5,124.5C 77.5,124.5 55.5,124.5 33.5,124.5C 32.5,123.833 31.5,123.167 30.5,122.5 Z"
    /></g>
<g><path
      style="opacity:1"
      fill="#5a9fdb"
      d="M 30.5,121.5 C 30.5,121.833 30.5,122.167 30.5,122.5C 23.8017,122.216 21.8017,125.216 24.5,131.5C 25.8498,132.95 27.5165,133.617 29.5,133.5C 26.7915,134.903 24.4582,134.236 22.5,131.5C 20.3055,124.356 22.9721,121.023 30.5,121.5 Z"
    /></g>
<g><path
      style="opacity:1"
      fill="#30a8eb"
      d="M 33.5,124.5 C 55.5,124.5 77.5,124.5 99.5,124.5C 100.301,126.042 100.634,127.708 100.5,129.5C 77.8786,130.479 55.212,130.812 32.5,130.5C 43.3257,129.67 54.3257,129.17 65.5,129C 69.2498,128.74 72.9164,128.073 76.5,127C 61.992,126.464 47.6586,125.63 33.5,124.5 Z"
    /></g>
<g><path
      style="opacity:1"
      fill="#1e91f0"
      d="M 30.5,122.5 C 31.5,123.167 32.5,123.833 33.5,124.5C 47.6586,125.63 61.992,126.464 76.5,127C 72.9164,128.073 69.2498,128.74 65.5,129C 54.3257,129.17 43.3257,129.67 32.5,130.5C 32.5,130.833 32.5,131.167 32.5,131.5C 32.0269,132.906 31.0269,133.573 29.5,133.5C 27.5165,133.617 25.8498,132.95 24.5,131.5C 21.8017,125.216 23.8017,122.216 30.5,122.5 Z"
    /></g>
<g><path
      style="opacity:1"
      fill="#40c1e8"
      d="M 106.5,124.5 C 121.578,124.184 136.578,124.517 151.5,125.5C 151.833,125.5 152.167,125.5 152.5,125.5C 152.5,126.833 152.5,128.167 152.5,129.5C 136.908,130.65 121.241,130.817 105.5,130C 104.261,127.882 104.595,126.049 106.5,124.5 Z"
    /></g>
<g><path
      style="opacity:1"
      fill="#14b9f5"
      d="M 106.5,125.5 C 116.528,125.724 126.528,126.39 136.5,127.5C 135.624,128.251 134.624,128.751 133.5,129C 124.506,129.5 115.506,129.666 106.5,129.5C 106.5,128.167 106.5,126.833 106.5,125.5 Z"
    /></g>
<g><path
      style="opacity:1"
      fill="#addbf1"
      d="M 100.5,129.5 C 100.389,130.117 100.056,130.617 99.5,131C 85.5,131.333 71.5,131.667 57.5,132C 58.4158,132.278 59.0825,132.778 59.5,133.5C 53.1667,132.5 50.5,135.167 51.5,141.5C 51.1667,141.5 50.8333,141.5 50.5,141.5C 50.4595,138.119 50.7929,134.786 51.5,131.5C 45.1667,131.5 38.8333,131.5 32.5,131.5C 32.5,131.167 32.5,130.833 32.5,130.5C 55.212,130.812 77.8786,130.479 100.5,129.5 Z"
    /></g>
<g><path
      style="opacity:1"
      fill="#e6f9f9"
      d="M 177.5,120.5 C 169.01,121.33 160.343,121.83 151.5,122C 152.337,123.011 152.67,124.178 152.5,125.5C 152.167,125.5 151.833,125.5 151.5,125.5C 144.364,124.169 136.864,123.503 129,123.5C 121.326,123.5 113.826,123.834 106.5,124.5C 104.595,126.049 104.261,127.882 105.5,130C 121.241,130.817 136.908,130.65 152.5,129.5C 154.296,131.417 156.296,133.25 158.5,135C 161.146,135.497 163.813,135.664 166.5,135.5C 166.5,135.833 166.5,136.167 166.5,136.5C 151.833,136.5 137.167,136.5 122.5,136.5C 106.167,136.5 89.8333,136.5 73.5,136.5C 69.8333,136.5 66.1667,136.5 62.5,136.5C 61.8333,135.167 60.8333,134.167 59.5,133.5C 59.0825,132.778 58.4158,132.278 57.5,132C 71.5,131.667 85.5,131.333 99.5,131C 100.056,130.617 100.389,130.117 100.5,129.5C 100.634,127.708 100.301,126.042 99.5,124.5C 85.6766,123.504 71.6766,123.171 57.5,123.5C 57.1961,122.85 56.8627,122.183 56.5,121.5C 96.8278,120.5 137.161,120.167 177.5,120.5 Z"
    /></g>
<g><path
      style="opacity:1"
      fill="#b8f1f9"
      d="M 106.5,124.5 C 113.826,123.834 121.326,123.5 129,123.5C 136.864,123.503 144.364,124.169 151.5,125.5C 136.578,124.517 121.578,124.184 106.5,124.5 Z"
    /></g>
<g><path
      style="opacity:1"
      fill="#edfef9"
      d="M 237.5,100.5 C 239.189,101.931 241.189,102.764 243.5,103C 242.707,104.085 242.04,105.252 241.5,106.5C 242.292,112.449 242.792,118.449 243,124.5C 244.993,120.623 245.826,121.123 245.5,126C 245.249,128.982 244.249,131.648 242.5,134C 244.813,136.424 246.48,139.258 247.5,142.5C 247.167,143.167 246.833,143.833 246.5,144.5C 244.914,142.33 243.58,139.996 242.5,137.5C 241.675,136.614 240.675,136.281 239.5,136.5C 239.813,139.247 239.48,141.914 238.5,144.5C 237.702,142.922 237.202,141.256 237,139.5C 236.617,140.056 236.117,140.389 235.5,140.5C 242.684,127.485 243.351,114.151 237.5,100.5 Z"
    /></g>
<g><path
      style="opacity:1"
      fill="#389ce0"
      d="M 59.5,133.5 C 60.8333,134.167 61.8333,135.167 62.5,136.5C 60.772,135.621 58.9386,134.954 57,134.5C 56.1667,134.833 55.3333,135.167 54.5,135.5C 55.1667,136.833 55.8333,138.167 56.5,139.5C 51.3967,140.738 51.23,142.071 56,143.5C 58.137,142.923 60.3037,142.59 62.5,142.5C 61.488,144.876 59.6546,145.876 57,145.5C 53.8665,145.858 52.0332,144.525 51.5,141.5C 50.5,135.167 53.1667,132.5 59.5,133.5 Z"
    /></g>
<g><path
      style="opacity:1"
      fill="#15b6f1"
      d="M 73.5,136.5 C 89.8333,136.5 106.167,136.5 122.5,136.5C 131.652,137.494 140.985,137.827 150.5,137.5C 150.67,138.822 150.337,139.989 149.5,141C 129.503,141.5 109.503,141.667 89.5,141.5C 89.5,140.167 89.5,138.833 89.5,137.5C 83.9738,137.821 78.6405,137.488 73.5,136.5 Z"
    /></g>
<g><path
      style="opacity:1"
      fill="#3fc4e7"
      d="M 122.5,136.5 C 137.167,136.5 151.833,136.5 166.5,136.5C 167.807,138.223 167.807,140.057 166.5,142C 131.835,142.5 97.1683,142.667 62.5,142.5C 71.3178,141.507 80.3178,141.173 89.5,141.5C 109.503,141.667 129.503,141.5 149.5,141C 150.337,139.989 150.67,138.822 150.5,137.5C 140.985,137.827 131.652,137.494 122.5,136.5 Z"
    /></g>
<g><path
      style="opacity:1"
      fill="#159df5"
      d="M 62.5,136.5 C 66.1667,136.5 69.8333,136.5 73.5,136.5C 78.6405,137.488 83.9738,137.821 89.5,137.5C 89.5,138.833 89.5,140.167 89.5,141.5C 80.3178,141.173 71.3178,141.507 62.5,142.5C 60.3037,142.59 58.137,142.923 56,143.5C 51.23,142.071 51.3967,140.738 56.5,139.5C 55.8333,138.167 55.1667,136.833 54.5,135.5C 55.3333,135.167 56.1667,134.833 57,134.5C 58.9386,134.954 60.772,135.621 62.5,136.5 Z"
    /></g>
<g><path
      style="opacity:1"
      fill="#f0fcfb"
      d="M 211.5,147.5 C 209.833,148.167 208.167,148.833 206.5,149.5C 168.832,149.667 131.165,149.5 93.5,149C 90.597,146.712 87.597,146.212 84.5,147.5C 82.6231,148.659 82.1231,150.326 83,152.5C 85.5875,154.196 88.4208,155.196 91.5,155.5C 91.5,155.833 91.5,156.167 91.5,156.5C 132.331,157.665 173.331,157.831 214.5,157C 215.244,155.961 216.244,155.461 217.5,155.5C 217.897,157.662 219.231,158.995 221.5,159.5C 218.794,160.793 216.294,160.459 214,158.5C 212.279,159.895 210.279,160.561 208,160.5C 196.518,159.409 185.018,159.243 173.5,160C 171.075,160.293 169.242,161.459 168,163.5C 167.517,162.552 167.351,161.552 167.5,160.5C 161.016,159.264 154.516,159.264 148,160.5C 142.972,160.051 137.972,159.384 133,158.5C 118.101,158.949 103.267,159.949 88.5,161.5C 86.246,160.876 84.5794,159.543 83.5,157.5C 82.2798,158.711 81.1131,158.711 80,157.5C 80.1525,155.481 80.6525,153.481 81.5,151.5C 79.2546,153.361 76.5879,154.361 73.5,154.5C 73.3367,152.143 73.5034,149.81 74,147.5C 75.117,148.949 75.7837,150.616 76,152.5C 77.0405,149.364 76.2072,146.864 73.5,145C 70.1177,144.176 66.7844,144.343 63.5,145.5C 62.7303,147.272 61.3969,148.272 59.5,148.5C 57.0597,147.107 54.3931,146.273 51.5,146C 50.6198,144.644 50.2865,143.144 50.5,141.5C 50.8333,141.5 51.1667,141.5 51.5,141.5C 52.0332,144.525 53.8665,145.858 57,145.5C 59.6546,145.876 61.488,144.876 62.5,142.5C 97.1683,142.667 131.835,142.5 166.5,142C 167.807,140.057 167.807,138.223 166.5,136.5C 166.5,136.167 166.5,135.833 166.5,135.5C 168.117,136.589 168.95,138.256 169,140.5C 169.202,138.744 169.702,137.078 170.5,135.5C 171.396,136.506 172.062,136.506 172.5,135.5C 171.41,134.391 171.41,133.391 172.5,132.5C 174.009,134.915 175.676,135.081 177.5,133C 175.342,131.688 175.009,130.022 176.5,128C 179.31,128.912 181.977,128.412 184.5,126.5C 185.594,127.868 185.26,129.035 183.5,130C 182.207,130.49 180.873,130.657 179.5,130.5C 179.83,133.109 181.33,134.776 184,135.5C 184.498,138.482 184.665,141.482 184.5,144.5C 190.842,144.334 197.175,144.5 203.5,145C 205.669,147.203 208.335,148.036 211.5,147.5 Z"
    /></g>
<g><path
      style="opacity:1"
      fill="#34d4f0"
      d="M 173.5,136.5 C 176.833,136.5 180.167,136.5 183.5,136.5C 183.5,138.5 183.5,140.5 183.5,142.5C 180.15,142.665 176.817,142.498 173.5,142C 172.248,140.172 172.248,138.339 173.5,136.5 Z"
    /></g>
<g><path
      style="opacity:1"
      fill="#aeeff9"
      d="M 84.5,147.5 C 87.597,146.212 90.597,146.712 93.5,149C 131.165,149.5 168.832,149.667 206.5,149.5C 193.344,150.496 180.01,150.829 166.5,150.5C 154.5,150.5 142.5,150.5 130.5,150.5C 119.5,150.5 108.5,150.5 97.5,150.5C 93.0108,150.113 88.6775,149.113 84.5,147.5 Z"
    /></g>
<g><path
      style="opacity:1"
      fill="#1fb0f2"
      d="M 84.5,147.5 C 88.6775,149.113 93.0108,150.113 97.5,150.5C 104.989,151.329 112.656,151.829 120.5,152C 121.337,153.011 121.67,154.178 121.5,155.5C 111.5,155.5 101.5,155.5 91.5,155.5C 88.4208,155.196 85.5875,154.196 83,152.5C 82.1231,150.326 82.6231,148.659 84.5,147.5 Z"
    /></g>
<g><path
      style="opacity:1"
      fill="#32dcf3"
      d="M 211.5,147.5 C 212.833,147.5 214.167,147.5 215.5,147.5C 211.415,150.359 206.748,151.693 201.5,151.5C 201.5,152.833 201.5,154.167 201.5,155.5C 203.826,154.849 206.159,154.182 208.5,153.5C 210.207,153.728 211.874,154.062 213.5,154.5C 213.082,155.222 212.416,155.722 211.5,156C 194.837,156.5 178.17,156.667 161.5,156.5C 164.358,155.834 167.358,155.167 170.5,154.5C 169.451,152.784 168.118,151.451 166.5,150.5C 180.01,150.829 193.344,150.496 206.5,149.5C 208.167,148.833 209.833,148.167 211.5,147.5 Z"
    /></g>
<g><path
      style="opacity:1"
      fill="#1ac2f3"
      d="M 97.5,150.5 C 108.5,150.5 119.5,150.5 130.5,150.5C 139.324,151.33 148.324,151.83 157.5,152C 157.957,152.414 158.291,152.914 158.5,153.5C 156.922,154.298 155.256,154.798 153.5,155C 142.839,155.5 132.172,155.667 121.5,155.5C 121.67,154.178 121.337,153.011 120.5,152C 112.656,151.829 104.989,151.329 97.5,150.5 Z"
    /></g>
<g><path
      style="opacity:1"
      fill="#47cbec"
      d="M 130.5,150.5 C 142.5,150.5 154.5,150.5 166.5,150.5C 168.118,151.451 169.451,152.784 170.5,154.5C 167.358,155.167 164.358,155.834 161.5,156.5C 138.167,156.5 114.833,156.5 91.5,156.5C 91.5,156.167 91.5,155.833 91.5,155.5C 101.5,155.5 111.5,155.5 121.5,155.5C 132.172,155.667 142.839,155.5 153.5,155C 155.256,154.798 156.922,154.298 158.5,153.5C 158.291,152.914 157.957,152.414 157.5,152C 148.324,151.83 139.324,151.33 130.5,150.5 Z"
    /></g>
<g><path
      style="opacity:1"
      fill="#c3fbfe"
      d="M 213.5,154.5 C 214.833,154.5 216.167,154.5 217.5,154.5C 217.5,154.833 217.5,155.167 217.5,155.5C 216.244,155.461 215.244,155.961 214.5,157C 173.331,157.831 132.331,157.665 91.5,156.5C 114.833,156.5 138.167,156.5 161.5,156.5C 178.17,156.667 194.837,156.5 211.5,156C 212.416,155.722 213.082,155.222 213.5,154.5 Z"
    /></g>
<g><path
      style="opacity:1"
      fill="#e5f7fc"
      d="M 50.5,204.5 C 50.5,204.167 50.5,203.833 50.5,203.5C 50.5,202.5 50.5,201.5 50.5,200.5C 45.6946,199.513 40.6946,199.179 35.5,199.5C 35.5,196.833 35.5,194.167 35.5,191.5C 39.8333,191.5 44.1667,191.5 48.5,191.5C 48.5,190.167 48.5,188.833 48.5,187.5C 44.1667,187.5 39.8333,187.5 35.5,187.5C 35.5,187.167 35.5,186.833 35.5,186.5C 35.5,184.5 35.5,182.5 35.5,180.5C 40.5,180.5 45.5,180.5 50.5,180.5C 50.7678,178.901 50.4345,177.568 49.5,176.5C 43.3554,175.51 37.0221,175.177 30.5,175.5C 30.5,185.167 30.5,194.833 30.5,204.5C 29.8826,204.389 29.3826,204.056 29,203.5C 28.5003,195.507 28.3336,187.507 28.5,179.5C 27.448,179.649 26.448,179.483 25.5,179C 26.3802,177.644 26.7135,176.144 26.5,174.5C 29.5778,173.798 32.5778,172.798 35.5,171.5C 40.8348,172.227 46.1681,172.894 51.5,173.5C 51.7771,176.448 51.4438,179.281 50.5,182C 45.8932,181.69 41.2266,181.524 36.5,181.5C 36.5,183.167 36.5,184.833 36.5,186.5C 40.8461,186.334 45.1794,186.501 49.5,187C 50.3337,189.712 50.0003,192.379 48.5,195C 44.6642,193.827 40.6642,193.494 36.5,194C 37.3802,195.356 37.7135,196.856 37.5,198.5C 42.5,198.5 47.5,198.5 52.5,198.5C 52.9465,201.01 52.2798,203.01 50.5,204.5 Z"
    /></g>
<g><path
      style="opacity:1"
      fill="#d6ecf8"
      d="M 101.5,184.5 C 100.167,183.167 98.8333,181.833 97.5,180.5C 94.4188,176.91 90.4188,175.243 85.5,175.5C 81.5279,175.492 77.8612,176.492 74.5,178.5C 74.5,177.5 74.5,176.5 74.5,175.5C 79.7619,174.361 85.0952,173.528 90.5,173C 91.0253,172.308 91.6919,171.808 92.5,171.5C 95.0099,173.511 97.3432,175.678 99.5,178C 98.3961,179.131 98.7295,179.965 100.5,180.5C 101.429,181.689 101.762,183.022 101.5,184.5 Z"
    /></g>
<g><path
      style="opacity:1"
      fill="#7ab3e5"
      d="M 211.5,176.5 C 218.982,175.508 226.648,175.175 234.5,175.5C 234.5,177.167 234.5,178.833 234.5,180.5C 231.5,180.5 228.5,180.5 225.5,180.5C 227.948,179.527 230.615,179.194 233.5,179.5C 233.5,178.5 233.5,177.5 233.5,176.5C 226.167,176.5 218.833,176.5 211.5,176.5 Z"
    /></g>
<g><path
      style="opacity:1"
      fill="#79b5ec"
      d="M 49.5,176.5 C 50.4345,177.568 50.7678,178.901 50.5,180.5C 45.5,180.5 40.5,180.5 35.5,180.5C 35.5,182.5 35.5,184.5 35.5,186.5C 34.5318,184.393 34.1984,182.059 34.5,179.5C 39.5,179.5 44.5,179.5 49.5,179.5C 49.5,178.5 49.5,177.5 49.5,176.5 Z"
    /></g>
<g><path
      style="opacity:1"
      fill="#1d86ec"
      d="M 193.5,176.5 C 195.679,177.103 197.846,177.77 200,178.5C 201.145,181.887 200.312,182.887 197.5,181.5C 197.5,180.833 197.167,180.5 196.5,180.5C 195.057,181.335 194.057,182.668 193.5,184.5C 192.943,182.282 192.943,179.949 193.5,177.5C 193.5,177.167 193.5,176.833 193.5,176.5 Z"
    /></g>
<g><path
      style="opacity:1"
      fill="#3a8ce6"
      d="M 97.5,180.5 C 99.6342,186.334 99.9676,192.334 98.5,198.5C 96.4225,202.532 93.0892,204.532 88.5,204.5C 88.5,206.167 88.5,207.833 88.5,209.5C 91.4317,209.546 94.0984,209.046 96.5,208C 97.727,209.587 97.3937,210.921 95.5,212C 88.0401,215.041 84.0401,212.541 83.5,204.5C 77.2829,204.462 73.1162,201.462 71,195.5C 69.5778,189.206 70.7445,183.539 74.5,178.5C 77.8612,176.492 81.5279,175.492 85.5,175.5C 90.4188,175.243 94.4188,176.91 97.5,180.5 Z"
    /></g>
<g><path
      style="opacity:1"
      fill="#7cb9ed"
      d="M 123.5,175.5 C 125.415,175.216 127.081,175.549 128.5,176.5C 127.167,176.5 125.833,176.5 124.5,176.5C 124.5,180.167 124.5,183.833 124.5,187.5C 124.802,190.059 124.468,192.393 123.5,194.5C 123.5,188.167 123.5,181.833 123.5,175.5 Z"
    /></g>
<g><path
      style="opacity:1"
      fill="#2c83d7"
      d="M 128.5,176.5 C 128.825,183.687 128.491,190.687 127.5,197.5C 127.83,191.132 127.496,184.798 126.5,178.5C 125.833,181.642 125.166,184.642 124.5,187.5C 124.5,183.833 124.5,180.167 124.5,176.5C 125.833,176.5 127.167,176.5 128.5,176.5 Z"
    /></g>
<g><path
      style="opacity:1"
      fill="#f4faf9"
      d="M 80.5,179.5 C 91.1005,177.685 96.2671,182.018 96,192.5C 93.4661,200.074 88.2995,202.574 80.5,200C 73.8686,193.136 73.8686,186.303 80.5,179.5 Z"
    /></g>
<g><path
      style="opacity:1"
      fill="#4891de"
      d="M 97.5,180.5 C 98.8333,181.833 100.167,183.167 101.5,184.5C 101.665,187.518 101.498,190.518 101,193.5C 100.901,195.653 100.067,197.319 98.5,198.5C 99.9676,192.334 99.6342,186.334 97.5,180.5 Z"
    /></g>
<g><path
      style="opacity:1"
      fill="#2985e7"
      d="M 211.5,176.5 C 218.833,176.5 226.167,176.5 233.5,176.5C 233.5,177.5 233.5,178.5 233.5,179.5C 230.615,179.194 227.948,179.527 225.5,180.5C 225.5,188.167 225.5,195.833 225.5,203.5C 224.167,203.5 222.833,203.5 221.5,203.5C 221.825,195.648 221.492,187.982 220.5,180.5C 217.5,180.5 214.5,180.5 211.5,180.5C 211.5,179.167 211.5,177.833 211.5,176.5 Z"
    /></g>
<g><path
      style="opacity:1"
      fill="#4590da"
      d="M 193.5,177.5 C 192.943,179.949 192.943,182.282 193.5,184.5C 194.057,182.668 195.057,181.335 196.5,180.5C 195.737,184.137 194.403,187.47 192.5,190.5C 193.044,186.36 192.044,185.693 189.5,188.5C 190.462,184.605 191.796,180.939 193.5,177.5 Z"
    /></g>
<g><path
      style="opacity:1"
      fill="#5ba2df"
      d="M 35.5,187.5 C 39.8333,187.5 44.1667,187.5 48.5,187.5C 48.5,188.833 48.5,190.167 48.5,191.5C 44.1667,191.5 39.8333,191.5 35.5,191.5C 39.3525,190.834 43.3525,190.167 47.5,189.5C 43.3525,188.833 39.3525,188.166 35.5,187.5 Z"
    /></g>
<g><path
      style="opacity:1"
      fill="#7eb9ed"
      d="M 67.5,192.5 C 62.3814,191.897 57.7147,192.564 53.5,194.5C 52.596,193.791 52.2627,192.791 52.5,191.5C 57.6946,191.179 62.6946,191.513 67.5,192.5 Z"
    /></g>
<g><path
      style="opacity:1"
      fill="#4688bc"
      d="M 220.5,180.5 C 221.492,187.982 221.825,195.648 221.5,203.5C 222.833,203.5 224.167,203.5 225.5,203.5C 224.081,204.451 222.415,204.784 220.5,204.5C 220.5,196.5 220.5,188.5 220.5,180.5 Z"
    /></g>
<g><path
      style="opacity:1"
      fill="#468fd7"
      d="M 67.5,192.5 C 67.5,193.5 67.5,194.5 67.5,195.5C 62.6367,195.819 57.97,195.486 53.5,194.5C 57.7147,192.564 62.3814,191.897 67.5,192.5 Z"
    /></g>
<g><path
      style="opacity:1"
      fill="#dcf2f9"
      d="M 196.5,180.5 C 197.167,180.5 197.5,180.833 197.5,181.5C 199.238,185.714 200.572,190.048 201.5,194.5C 198.5,194.5 195.5,194.5 192.5,194.5C 192.5,193.167 192.5,191.833 192.5,190.5C 194.403,187.47 195.737,184.137 196.5,180.5 Z"
    /></g>
<g><path
      style="opacity:1"
      fill="#8abbe3"
      d="M 110.5,196.5 C 109.509,190.021 109.176,183.354 109.5,176.5C 108.167,176.5 106.833,176.5 105.5,176.5C 105.5,183.167 105.5,189.833 105.5,196.5C 104.509,189.687 104.175,182.687 104.5,175.5C 106.5,175.5 108.5,175.5 110.5,175.5C 110.5,182.5 110.5,189.5 110.5,196.5 Z"
    /></g>
<g><path
      style="opacity:1"
      fill="#4d95d9"
      d="M 189.5,188.5 C 189.176,193.461 187.509,197.794 184.5,201.5C 185.636,197.426 186.969,193.426 188.5,189.5C 188.5,188.833 188.833,188.5 189.5,188.5 Z"
    /></g>
<g><path
      style="opacity:1"
      fill="#368ae9"
      d="M 193.5,176.5 C 195.693,175.203 198.027,175.203 200.5,176.5C 203.35,184.908 206.35,193.241 209.5,201.5C 208.393,203.847 206.726,204.18 204.5,202.5C 204.461,201.417 204.127,200.417 203.5,199.5C 201.333,199.167 199.167,198.833 197,198.5C 194.39,198.533 192.223,199.2 190.5,200.5C 189.777,202.213 188.443,203.213 186.5,203.5C 185.287,203.253 184.62,202.586 184.5,201.5C 187.509,197.794 189.176,193.461 189.5,188.5C 192.044,185.693 193.044,186.36 192.5,190.5C 192.5,191.833 192.5,193.167 192.5,194.5C 195.5,194.5 198.5,194.5 201.5,194.5C 200.572,190.048 199.238,185.714 197.5,181.5C 200.312,182.887 201.145,181.887 200,178.5C 197.846,177.77 195.679,177.103 193.5,176.5 Z"
    /></g>
<g><path
      style="opacity:1"
      fill="#67a6da"
      d="M 49.5,176.5 C 43.5,176.5 37.5,176.5 31.5,176.5C 31.5,185.5 31.5,194.5 31.5,203.5C 37.8333,203.5 44.1667,203.5 50.5,203.5C 50.5,203.833 50.5,204.167 50.5,204.5C 43.8333,204.5 37.1667,204.5 30.5,204.5C 30.5,194.833 30.5,185.167 30.5,175.5C 37.0221,175.177 43.3554,175.51 49.5,176.5 Z"
    /></g>
<g><path
      style="opacity:1"
      fill="#2384e5"
      d="M 49.5,176.5 C 49.5,177.5 49.5,178.5 49.5,179.5C 44.5,179.5 39.5,179.5 34.5,179.5C 34.1984,182.059 34.5318,184.393 35.5,186.5C 35.5,186.833 35.5,187.167 35.5,187.5C 39.3525,188.166 43.3525,188.833 47.5,189.5C 43.3525,190.167 39.3525,190.834 35.5,191.5C 34.5233,194.287 34.19,197.287 34.5,200.5C 39.8333,200.5 45.1667,200.5 50.5,200.5C 50.5,201.5 50.5,202.5 50.5,203.5C 44.1667,203.5 37.8333,203.5 31.5,203.5C 31.5,194.5 31.5,185.5 31.5,176.5C 37.5,176.5 43.5,176.5 49.5,176.5 Z"
    /></g>
<g><path
      style="opacity:1"
      fill="#82bbec"
      d="M 35.5,191.5 C 35.5,194.167 35.5,196.833 35.5,199.5C 40.6946,199.179 45.6946,199.513 50.5,200.5C 45.1667,200.5 39.8333,200.5 34.5,200.5C 34.19,197.287 34.5233,194.287 35.5,191.5 Z"
    /></g>
<g><path
      style="opacity:1"
      fill="#3088e7"
      d="M 110.5,196.5 C 112.794,200.252 116.128,201.419 120.5,200C 122.16,198.512 123.16,196.679 123.5,194.5C 124.468,192.393 124.802,190.059 124.5,187.5C 125.166,184.642 125.833,181.642 126.5,178.5C 127.496,184.798 127.83,191.132 127.5,197.5C 127.107,199.284 126.441,200.95 125.5,202.5C 120.721,204.424 115.721,204.924 110.5,204C 107.8,202.143 106.134,199.643 105.5,196.5C 105.5,189.833 105.5,183.167 105.5,176.5C 106.833,176.5 108.167,176.5 109.5,176.5C 109.176,183.354 109.509,190.021 110.5,196.5 Z"
    /></g>
<g><path
      style="opacity:1"
      fill="#76b1dc"
      d="M 153.5,200.5 C 154.434,201.568 154.768,202.901 154.5,204.5C 147.5,204.5 140.5,204.5 133.5,204.5C 132.508,204.672 131.842,204.338 131.5,203.5C 138.833,203.5 146.167,203.5 153.5,203.5C 153.5,202.5 153.5,201.5 153.5,200.5 Z"
    /></g>
<g><path
      style="opacity:1"
      fill="#80bce1"
      d="M 209.5,201.5 C 210.404,202.209 210.737,203.209 210.5,204.5C 207.918,204.975 205.918,204.308 204.5,202.5C 206.726,204.18 208.393,203.847 209.5,201.5 Z"
    /></g>
<g><path
      style="opacity:1"
      fill="#ecf8fb"
      d="M 188.5,189.5 C 186.969,193.426 185.636,197.426 184.5,201.5C 184.62,202.586 185.287,203.253 186.5,203.5C 188.443,203.213 189.777,202.213 190.5,200.5C 190.5,201.833 190.5,203.167 190.5,204.5C 186.857,204.643 183.523,204.643 180.5,204.5C 180.5,204.167 180.5,203.833 180.5,203.5C 180.5,194.5 180.5,185.5 180.5,176.5C 179.081,175.549 177.415,175.216 175.5,175.5C 175.5,179.167 175.5,182.833 175.5,186.5C 171.167,186.5 166.833,186.5 162.5,186.5C 162.813,182.958 162.479,179.625 161.5,176.5C 160.167,175.167 158.833,175.167 157.5,176.5C 156.506,185.652 156.173,194.985 156.5,204.5C 158.5,204.5 160.5,204.5 162.5,204.5C 159.958,205.039 157.792,206.372 156,208.5C 155.5,207.333 154.667,206.5 153.5,206C 146.654,205.828 139.987,205.328 133.5,204.5C 140.5,204.5 147.5,204.5 154.5,204.5C 154.768,202.901 154.434,201.568 153.5,200.5C 148.5,199.833 143.5,199.167 138.5,198.5C 143.123,192.706 147.956,187.039 153,181.5C 153.494,179.866 153.66,178.199 153.5,176.5C 146.352,175.508 139.019,175.175 131.5,175.5C 131.5,177.167 131.5,178.833 131.5,180.5C 136.833,180.5 142.167,180.5 147.5,180.5C 142.543,186.628 137.376,192.628 132,198.5C 131.506,200.134 131.34,201.801 131.5,203.5C 130.842,202.602 130.176,201.602 129.5,200.5C 128.378,201.63 127.044,202.297 125.5,202.5C 126.441,200.95 127.107,199.284 127.5,197.5C 128.491,190.687 128.825,183.687 128.5,176.5C 127.081,175.549 125.415,175.216 123.5,175.5C 125.091,174.781 126.591,173.781 128,172.5C 129,172.833 130,173.167 131,173.5C 133.123,171.328 135.289,171.161 137.5,173C 140.333,173.167 143.167,173.333 146,173.5C 149.276,173.442 152.276,172.776 155,171.5C 155.689,172.357 156.522,173.023 157.5,173.5C 160.754,172.19 163.254,173.19 165,176.5C 167.405,175.726 169.905,175.226 172.5,175C 176.578,169.65 179.745,169.817 182,175.5C 182.169,183.188 182.669,190.855 183.5,198.5C 184.45,194.918 186.116,191.918 188.5,189.5 Z"
    /></g>
<g><path
      style="opacity:1"
      fill="#90c0ea"
      d="M 157.5,176.5 C 157.173,185.682 157.507,194.682 158.5,203.5C 159.5,203.5 160.5,203.5 161.5,203.5C 161.183,199.298 161.517,195.298 162.5,191.5C 162.5,195.833 162.5,200.167 162.5,204.5C 160.5,204.5 158.5,204.5 156.5,204.5C 156.173,194.985 156.506,185.652 157.5,176.5 Z"
    /></g>
<g><path
      style="opacity:1"
      fill="#9cceec"
      d="M 138.5,198.5 C 143.5,199.167 148.5,199.833 153.5,200.5C 148.125,200.828 142.792,200.495 137.5,199.5C 137.624,198.893 137.957,198.56 138.5,198.5 Z"
    /></g>
<g><path
      style="opacity:1"
      fill="#2686e4"
      d="M 180.5,176.5 C 180.5,185.5 180.5,194.5 180.5,203.5C 179.167,203.5 177.833,203.5 176.5,203.5C 176.817,199.298 176.483,195.298 175.5,191.5C 171.167,191.5 166.833,191.5 162.5,191.5C 161.517,195.298 161.183,199.298 161.5,203.5C 160.5,203.5 159.5,203.5 158.5,203.5C 158.169,194.808 158.502,186.141 159.5,177.5C 160.167,180.642 160.834,183.642 161.5,186.5C 165.97,187.486 170.637,187.819 175.5,187.5C 176.482,184.038 176.815,180.371 176.5,176.5C 177.833,176.5 179.167,176.5 180.5,176.5 Z"
    /></g>
<g><path
      style="opacity:1"
      fill="#64a8e4"
      d="M 175.5,191.5 C 176.483,195.298 176.817,199.298 176.5,203.5C 177.833,203.5 179.167,203.5 180.5,203.5C 180.5,203.833 180.5,204.167 180.5,204.5C 178.833,204.5 177.167,204.5 175.5,204.5C 175.5,200.167 175.5,195.833 175.5,191.5 Z"
    /></g>
<g><path
      style="opacity:1"
      fill="#2d89e7"
      d="M 153.5,176.5 C 153.66,178.199 153.494,179.866 153,181.5C 147.956,187.039 143.123,192.706 138.5,198.5C 137.957,198.56 137.624,198.893 137.5,199.5C 142.792,200.495 148.125,200.828 153.5,200.5C 153.5,201.5 153.5,202.5 153.5,203.5C 146.167,203.5 138.833,203.5 131.5,203.5C 131.34,201.801 131.506,200.134 132,198.5C 137.376,192.628 142.543,186.628 147.5,180.5C 142.167,180.5 136.833,180.5 131.5,180.5C 131.5,178.833 131.5,177.167 131.5,175.5C 139.019,175.175 146.352,175.508 153.5,176.5 Z"
    /></g>
<g><path
      style="opacity:1"
      fill="#3b8bdb"
      d="M 161.5,176.5 C 161.5,179.833 161.5,183.167 161.5,186.5C 160.834,183.642 160.167,180.642 159.5,177.5C 158.502,186.141 158.169,194.808 158.5,203.5C 157.507,194.682 157.173,185.682 157.5,176.5C 158.833,175.167 160.167,175.167 161.5,176.5 Z"
    /></g>
<g><path
      style="opacity:1"
      fill="#a7d1ee"
      d="M 161.5,176.5 C 162.479,179.625 162.813,182.958 162.5,186.5C 166.833,186.5 171.167,186.5 175.5,186.5C 175.5,186.833 175.5,187.167 175.5,187.5C 170.637,187.819 165.97,187.486 161.5,186.5C 161.5,183.167 161.5,179.833 161.5,176.5 Z"
    /></g>
<g><path
      style="opacity:1"
      fill="#85c0f1"
      d="M 153.5,176.5 C 146.5,176.5 139.5,176.5 132.5,176.5C 132.5,177.5 132.5,178.5 132.5,179.5C 137.695,179.179 142.695,179.513 147.5,180.5C 142.695,179.513 137.695,179.179 132.5,179.5C 132.5,178.5 132.5,177.5 132.5,176.5C 139.5,176.5 146.5,176.5 153.5,176.5 Z"
    /></g>
<g><path
      style="opacity:1"
      fill="#6ba9e8"
      d="M 180.5,176.5 C 179.167,176.5 177.833,176.5 176.5,176.5C 176.815,180.371 176.482,184.038 175.5,187.5C 175.5,187.167 175.5,186.833 175.5,186.5C 175.5,182.833 175.5,179.167 175.5,175.5C 177.415,175.216 179.081,175.549 180.5,176.5 Z"
    /></g>
</svg>
